<?xml version="1.0" encoding="UTF-8"?>
<svg id="_Слой_2" data-name="Слой 2" xmlns="http://www.w3.org/2000/svg" xmlns:xlink="http://www.w3.org/1999/xlink" viewBox="0 0 377.79 202.95">
  <defs>
    <style>
      .cls-1 {
        fill: #f73111;
      }

      .cls-2 {
        fill: #f73111;
      }

      .cls-3 {
        fill: #ba1212;
      }

      .cls-4 {
        fill: #d81f09;
      }

      .cls-5 {
        fill: #fff;
      }

      .cls-6 {
        fill: #fa6310;
      }

      .cls-7 {
        fill: url(#_Безымянный_градиент_50);
      }

      .cls-8 {
        fill: #fcfae1;
      }

      .cls-9 {
        fill: #78131f;
      }

      .cls-10 {
        fill: #dfd1cf;
      }

      .cls-11 {
        fill: #fa6310;
      }

      .cls-12 {
        fill: #3a0415;
      }
    </style>
    <linearGradient id="_Безымянный_градиент_50" data-name="Безымянный градиент 50" x1="-547.11" y1="111.36" x2="-337.17" y2="129.72" gradientTransform="translate(650.84) skewX(-20.13)" gradientUnits="userSpaceOnUse">
      <stop offset="0" stop-color="#f73111"/>
      <stop offset=".25" stop-color="#f73111"/>
      <stop offset=".55" stop-color="#fa6310"/>
      <stop offset="1" stop-color="#ba1212"/>
    </linearGradient>
  </defs>
  <g id="_Слой_2-2" data-name="Слой 2">
    <g>
      <path class="cls-1" d="M44.03,175.7c-.04-.2-.59-.04-.75-.24-.66-.78-1-1.85-1.08-3.05-2.11,2.16-4.21,4.32-6.31,6.45,1.44.52,2.53,1.48,3.74,2.4.7-1.52,4.68-4.12,4.4-5.56ZM19.46,198.13c-1.07,0-2.23.43-3.18,0,.08-.48.33-.56.76-.77,1.12-.55,3.29-.89,4.65-1.39,6.6-2.47,15.59-9.47,12.38-15.29-6.33,6.37-12.56,12.31-18.61,16.8,0,0-.56,1.62-.56,1.62,0,0,23.28-.15,34.32-.23,1.55,0,3.09-.27,4.62-.75-11.5.09-22.9-.05-34.38,0ZM151.72,149.16l.1-.28c-.21.09-.25.18-.1.28ZM149.72,154.27c.03-.38.28-.86-.22-.96-.74,1.63-1.1,3.53-1.88,5.12-2.63,5.43-8.85,9.93-13.65,13.83.17.35,1.08-.15,1.46-.31,8.15-3.37,13.69-10.16,14.29-17.69ZM160.79,146.67c-.03-.19-.53.16-.47.55.03.19.53-.16.47-.55ZM191.53,97.99s-.03.05-.04.07c-.02.04-.04.07-.05.1-.04.1-.07.18-.09.26-.01.05-.01.09-.01.13.08-.22.17-.45.25-.67-.03.04-.04.07-.06.1ZM214.84,53.95l-.74,1.67c1.45.55,2.94-2.58.74-1.67ZM211.14,63.14c-3.14-.69-5.26,4.44-1.35,3.83,1.88-.29,3-3.47,1.35-3.83ZM191.45,97.17c-.74.44-1.73,2.28-.73,2.79.03.01.06.03.08.04.18-.48.36-.96.54-1.44h0c.08-.22.17-.45.25-.67h0c.1-.26.19-.52.29-.77-.15-.01-.31-.01-.44.06ZM156.65,192.36c.1-.29.2-.58.31-.89-.12-.11-.28-.2-.48-.25-1.14-.27-1.08.51-1.15.55,0,0-.02,0-.03,0-.97.37-.09,1.84.94,1.77.13-.38.27-.78.41-1.19ZM182.79,117.11c-2.74-.95-4.68,3.77-1.44,3.27,1.63-.25,2.66-2.85,1.44-3.27ZM186.87,96.3c4.1-2.73,7.4-7.36,6.25-11.05-.22-.71-2.15-3.17-2.65-1.3-.33,1.21,1.3,2.36-.39,5.18-1.55,2.59-3.27,3.72-5.85,4.96-.35-.29.11-1.05.27-1.52,1.01-2.86,2.28-7.15,3.61-9.83.72-1.46,1.44-1.42,2.11-2.11,4.24-4.36,7.05-8.53,8.93-13.67l.1-.28c.09-.28.22-.55.3-.83,1.09-3.6,1.21-6.61.51-9.68.87-.86,1.64-1.68,2.57-2.49,1.41-.81,2.75-1.86,3.88-3.04,3.78-3.07,6.56-9.95,3.63-12.18-.24-.18-.16-.85-1.18-.55l.22,1.66c-.73,2.41.03,3.18-2.2,5.91-2.33,2.85-4.4,3.23-7.01,4.88.5-2.68,1.99-5.54,2.71-8.16.21-.79.1-1.4.21-2.08.23-1.48.31-2.79.25-3.97-1.9,1.87-3.8,3.2-5.77,4.43-1.28.8-2.58,1.56-3.92,2.39h-64.74c-1.66.48-3.3,1-4.91,1.57-.31.11-.62.22-.93.33-2.68.98-5.3,2.09-7.85,3.31-1.84.88-3.65,1.81-5.41,2.8-2.55,1.43-5.02,2.96-7.41,4.59-.38.25-.74.51-1.12.77-.53.37-1.06.75-1.59,1.14-.61.44-1.21.89-1.81,1.35-.97.74-1.92,1.49-2.85,2.26-.26.22-.53.44-.79.66-.97.82-1.92,1.65-2.85,2.49-2.42,2.19-4.69,4.46-6.81,6.79-.73.8-1.45,1.62-2.14,2.43-1.59,1.87-3.08,3.77-4.45,5.68h0c-2.56,3.56-4.75,7.17-6.52,10.74-.15.3-.3.6-.44.9-.16.33-1.4,3.52-1.33,3.49-.2.55-.44,1.2-.7,1.91-2.9,8.02-8.63,25.65.08,35.78.25.3.52.58.8.87.28.29.58.56.88.83,3.93,3.46,10.05,5.72,19.28,5.85.3,0,.61,0,.91,0-.31,0-.61,0-.92.02-3.48.13-6.99,1.04-10.52,2.54-1.29.55-2.57,1.17-3.86,1.87-.72.39-1.45.8-2.17,1.24-2.37,1.42-4.75,3.06-7.13,4.89-.64.49-1.28.99-1.91,1.5-2.53,2.03-5.06,4.23-7.58,6.55t0,0c-.52.48-1.04.97-1.56,1.45-1.76,1.66-3.53,3.37-5.28,5.11-.72.71-1.44,1.43-2.15,2.15.5,6.41,8.62,7.32,15.33,2.76-.44,1.69-1.55,3.26-2.61,4.84-.47,1.6,3.57-2.28,3.86-2.65,1.83-2.33,3.46-5.36,5.35-7.72,3.42-4.27,3.61-2.94,7.58-3.33,7.23-.71,13.73-5.62,18.8-11.61.55-.05-.07.88-.22,1.17-.87,1.65-2.31,3.24-3.11,4.92.21.37,3.27-1.85,3.72-2.21,5.59-4.52,6.36-8.84,10.48-13.16.75-.79,1.55-1.06,2.17-1.62.26-.24.31-.68.36-.73.74-.62.21.72.62.55.14-1.7,1.9-1.45,2.27-1.66.82-.47-.54-.5-.25-.82.29-.06.99.08,1.11,0,.21-.14,0-.86.26-1.1l.63.56c.59-.9.55-.3,1.35-.29.29-.48-.35-.17-.41-.31-.05-.11.52-.51.54-.8.39-.17-.1,1.19.62.55.15-.13.26-1,.41-1.11.1-.08,1.38.12,2.23-.54.66-.51.24-1.37,1.77-.57.25-1.92,2.85-1.33,4.29-2.21-.13,1.09.22.19.85.06,1.09-.22,1.98.29,2.72-1.17l.21.55c.63-.29,1.56-.83,2.16-.99.42-.11,1.36-.37,1.44-.39.79-.17,1.53.39,2.06-.83.51-.13.02.41.11.51.35.39,2-1.14,2.54-1.34l-.03.83c1.95-.9.75-.97.37-1.38-.38-.41-.77-.81-1.17-1.21-6.4.23-13.6.48-20.02-.21h0c-.06,0-.13-.01-.19-.02,0,0,0,0,0,0-.57-.06-1.13-.13-1.69-.21-.69-.1-1.37-.2-2.03-.33,0,0,0,0-.02,0-.03,0-.05,0-.07,0-6.37-1.19-11.48-3.64-13.47-8.49-2.12-5.18,1.1-13.97,2.74-18.46l.09-.24c2.05-5.55,5.82-10.7,10.51-14.81,6.01-5.26,13.53-8.81,20.8-9.27,10.43-.67,21.7.35,30.53.42l-18.85,51.41c-.73,0-1.48,0-2.26.02,5.21,4.44,7.83,11.74,5.78,19.6-.75,2.87-2.21,5.78-3.23,8.64,5.39-6.37,7.79-14.39,8.13-21.03.79-.15.41.19.49.55.74,3.31-.76,9.65-2.57,13.43-.64,1.35-2.04,2.39-1.92,3.73.57-.4,1-.02,1.26-.05.07,0,.84-.99,1.14-.51.08.13-.61.92-.03.83.3-1.57,2.77-2.36,3.26-3.6.52-.1-.43,1.51.52.83.07-.05.37-.93.93-1.38.5-.4,1.26-.46,1.42-.61.21-.21.2-.65.36-.83.24-.28.61-.22.68-.38.11-.27-.16-.67.19-.96.33-.27.86-.09,1.16-.47.75-.93,1.57-2.89,2.11-3.47.24-.25.99-.18.79-.74-.02-.04-.49.04-.47-.18.07-1.01.81-.93.86-.99.04-.06.47-.69.68-.99.45-.63.62-1.79,1.48-1.73.33-.46-.55-.15-.4-.4,1.05-1.12,2.14-2.18,1.5-3.33l.48.13c.41-.34,1.11-2.61,1.49-3.14.13-.18,2.68-1.55.53-1.56.11-.55.74-.15.94-.28.24-.16-.39-1.11.73-1.24-.58-.92-.17-1.32.42-2.42.88-1.63,2.47-3.79,3.98-5.08.39-.33.92-.34.99-.39,2.81-2.32,7.08-5.63,8.37-8.76.84-2.06,1.19-5.23-1.26-5.35.41,4.57-.79,5.27-4.98,8.3l4.64-11.9c.33-.04,3.75-1.87,4.27-2.22ZM176.97,123.7c-1.12,2.03-3.57,3.08-5.22,4.43-6.13,5-9.54,11.59-11.02,17.99.84-.11.91-1.42,1.19-1.63.1-.07,1.18.09,1.54-1.25.06-.23-.48-.13-.5-.17-.22-.52.57-.54.68-.64.63-.62.46-1.05,1.85-1.01.09-.07-.13-.71.02-.83.76-.61.21.71.63.55.66-1.42,1.26-3.22,1.95-4.59.18-.36.49-.59.53-.67,2.55-4.9,3.31-4.43,6.56-8.2.94-1.09,2.72-3.11,1.78-3.97ZM166.58,147.5c.37-1.16,1.06-2.82-.43-1.11-.86.99-1.48,1.33-2.09,1.94-5.1,5.05-10.61,9.23-14.34,15.16-2.27,3.62-4.43,9.37-4.6,12.97-.02.36-.22.84.25.93,1.19-5.61,4.86-12.19,9.97-16.81,2.49-2.25,7.44-5.14,8.79-7.96.71-1.47.88-3.16,2.23-4.57.06-.18.14-.37.2-.55ZM115.85,124.21s.02.03.03.05c.05,0,.11-.02.16-.03-.06,0-.13-.01-.19-.02ZM191.53,97.99s-.03.05-.04.07c-.02.04-.04.07-.05.1-.04.1-.07.18-.09.26-.01.05-.01.09-.01.13.08-.22.17-.45.25-.67-.03.04-.04.07-.06.1Z"/>
      <path class="cls-12" d="M0,202.6l17.07-12.37c7.23-5.35,14.99-13.3,23.22-21.72,9.92-10.15,20.61-21.1,31.74-28.41-3.08-1.77-5.54-4.1-7.37-6.98-8-12.65-.97-31.75,1.67-38.95l.12-.34c.18-.59.42-1.21.67-1.85.7-1.83.89-2.21.97-2.39,5.16-10.86,13.83-21.86,24.41-30.96,11.57-9.94,24.9-17.26,38.55-21.17l1.05-.3h62.15c2.53-1.53,4.26-2.61,5.97-4.49l12.41-13.67-4.96,13.09c-.14.36.29.5.59.19l13.8-14.28c-2.95,7.09-9.24,24.06,1.97,24.44-1.84-2.97,1.29-11.78,2.18-14.05,2.58-6.53,4.2-10.87-1.46-15.23-1.86-1.43-8.58-3.39-8.58-3.39,0,0,8.74-5.67,14.37-5.67,4.62,0,10.07.5,14.18,8.08,2.31,4.27,3.86,11.98-1.93,24.49-.11.24-.17.4-.19.49,1.03,1.35,7.96,1.88,11.72,2.17,6.12.47,12.45.95,16.68,3.43,21.26,8.37,28.68,29.78,18.92,54.65-4.6,11.72-12.51,22.8-22.88,32.02-11.13,9.91-24.52,17.06-38.73,20.68-12.03,3.36-23.11,3.82-32.36,3.82-3.11,0-6.23-.06-9.24-.11-2.97-.05-6.03-.11-9.04-.11h-.14c-4.53,11.13-12.34,33.61-15.43,42.68l-2.22,6.55-50.25-.29,19.01-51.15c-4.79.13-8.7.41-10.62.79-10.77,2.14-20.94,13.52-30.79,24.52-11.19,12.51-22.77,25.45-36.55,25.55-10.8.08-33.58.23-33.58.23l-6.29.04-10.83-.04ZM191.03,117.68c6.59.11,11.04.19,14.23.24,4.68.08,6.62.12,8.61.12,1.43,0,2.96-.02,5.49-.05h.28c14.78-.18,27.36-9.76,31.68-18.67,4.5-9.27.28-16.76-11.28-20.04-.98-.14-5.43-.39-15.97-.39-6.26,0-12.81.09-18.73.25-3.66,9.84-10.81,29.07-14.32,38.53ZM139.92,78.4c-2.64,0-4.98.07-7.15.21-9.22.59-19.06,8.17-22.4,17.25l-.1.26c-1.18,3.23-3.95,10.8-2.58,14.13,1.34,3.26,5.25,5.31,11.96,6.24,2.91.41,6.38.6,10.61.6,3.37,0,6.74-.12,10-.24.6-.02,1.19-.04,1.77-.06l13.9-37.92c-1.16-.04-2.33-.09-3.54-.14-4.08-.17-8.29-.34-12.48-.34Z"/>
      <path class="cls-1" d="M188.34,43.14h-59.8c-26.82,7.68-48.73,28.45-57.97,47.89-.16.33-1.4,3.53-1.33,3.5-3.47,9.47-17.29,45.31,21.28,45.31-24.97,0-51.51,40.33-75.4,58.02,0,0-.56,1.62-.56,1.62,0,0,23.32-.16,34.37-.23,20.93-.14,39.77-45.58,67.55-51.1,5.61-1.12,18.83-1.03,18.83-1.03l-19.49,52.46,38.27.22s13.57-39.94,18.33-49.55c.13-.26.25-.49.36-.7,18.6-.57,36.23,2.06,56.06-3.5,55.47-14.06,81.54-81.14,38.55-97.65-8.99-5.69-36.6.53-30.41-12.85,14.75-31.9-23.52-28.38-10.94-26.87,20.85,9.74-8.39,28.13,7.71,36.94-21.33,1.09-21.68-6.67-14.91-22.96-1.7,3.63-15.03,17.34-14.64,12.49-3.51,3.86-7,5.62-10.82,8h-5.04ZM144.24,124.5c-8.33,0-20.46,1.15-30.28-.22-7.35-1.03-13.41-3.46-15.61-8.84-2.13-5.19,1.11-13.99,2.75-18.48l.09-.24c4.67-12.69,18.39-23.28,31.36-24.12,10.45-.67,21.73.36,30.57.42l-18.87,51.48ZM217.2,125.86c-9.98.12-4.7.06-35.84-.42h0s.28-.76.29-.78c.56-1.52,19.07-51.32,19.07-51.32,16.93-.66,40.95-.6,43.42.09,35.62,9.96,7.46,52.02-26.94,52.44Z"/>
      <path class="cls-7" d="M282.49,71.26c-2.63-8.51-8.93-14.89-18.21-18.45l-.29-.11-.25-.16c-2.69-1.7-8.25-2.13-13.63-2.54-6.26-.48-12.26-.94-15.8-3.37l-2.02,3.64c-1.39.07-2.72.11-3.95.11-9.1,0-14.47-1.94-16.91-6.11-1.09-1.87-1.5-4.06-1.43-6.46-2.84,2.16-4.71,2.81-6.09,2.98-2.49,2.08-4.93,3.55-7.16,4.89-.59.35-1.19.72-1.79,1.09l-1.65,1.03h-65.73c-25.51,7.58-44.71,27.29-52.52,43.66-.07.17-.2.5-.35.87l-.99,2.69c-2.24,6.1-8.2,22.29-2.08,31.97,3.44,5.44,10.37,8.2,20.59,8.2l-3.41,9.31c-13.87,0-29.95,16.46-45.51,32.39-6.02,6.16-12.18,12.46-18.3,17.89,7.78-.05,18.92-.13,25.59-.18,7.43-.05,15.78-9.39,25.45-20.2,11.53-12.9,24.61-27.51,41.11-30.79,5.13-1.02,15.08-1.13,19.11-1.13h.76l4.63.03-19.49,52.45,28.84.17c3.8-11.02,13.07-37.56,16.98-45.45.14-.28.3-.6.48-.93l2.02-3.73,3.83-.12c1.97-.06,4.03-.09,6.31-.09,3.18,0,6.37.06,9.45.11,3.04.06,6.18.11,9.26.11,8.66,0,18.96-.41,29.71-3.42l.08-.02.08-.02c11.96-3.03,23.16-8.97,32.39-17.18,8.51-7.57,15.01-16.68,18.8-26.34,3.79-9.65,4.51-18.91,2.08-26.78ZM147.19,129.15h-4.65c-2.35,0-5.07.1-7.95.2-3.44.12-6.99.25-10.64.25-4.82,0-8.84-.23-12.29-.72-9.77-1.36-15.67-4.83-18.03-10.6-2.64-6.43.9-16.09,2.8-21.29l.11-.3c5.57-15.13,22-27.76,37.41-28.75,2.47-.16,5.11-.24,8.06-.24,4.51,0,8.94.18,13.22.35,3.44.14,6.69.27,9.64.29l4.61.03-22.27,60.76ZM262.51,101.58c-6.71,13.83-25.45,28.67-46.96,28.94h-.28c-2.64.04-4.23.06-5.76.06-2.14,0-4.15-.04-9-.12-4.19-.08-10.52-.19-20.9-.35h-4.63l1.71-4.65c.13-.36.23-.63.31-.84.79-2.14,18.31-49.27,19.06-51.29l1.65-4.45,4.51-.18c7.59-.3,17.02-.47,25.89-.47,16.31,0,18.19.52,18.81.69,20.4,5.7,21.42,20.62,15.58,32.67Z"/>
      <g>
        <path class="cls-1" d="M202.85,40.88c0,.24-.01.48-.05.73.06-.31.08-.56.05-.73Z"/>
        <path class="cls-6" d="M190.47,83.95c1.74,13.32-24.13,17.01-3.6-.33,4.85-4.09,13.92-14.24,11.63-17.89-.71,3.34-4.51,6.86-7.54,9.27,1.48-19.74,25.32-25.61,19.2-36.53-2.96,10.5-8.75,9.58-17.19,17.44,2.47,8.44-28.71,44.75-18.26,28.63,12.09-15.48,1.5-30.68-13.5-25.03.97-1.5-3.2-2.19-2.86-2.77-.37-.09-.33.18-.48.55-.62.15.14-1.17-.55,0-1.05.14.33-1.45-1.31-.86.31-1.44-.21-1.45-1.47-1.36.67-1.04-.29-1.78-1.44-1.34-.1.82-1.27,1.27-1.49.25.83,3.83,4.51,6.09,6.67,9.15-16.51,2.56-50.64-2.49-58.37,29.2-2.37,21.75-6.75-15.63,13.22-25.48,3.91-2.56,7.83-3.87,11.91-4.57-3.51-.7-7.96.93-11.97,3.04-.6.34-3.91,3.32-2.32.43.18-.33.78-.07.91-.15,1.93-6.16,11.94-10.87,17.07-12.59-1.13-8.89-13.51-13.26-24.34-7.81-.54,2.74-2.57.16-3.02,2.42-.55.12.11-.56-.21-.56-2.2.33-1.37,1.78-.77,2.49-1.08-.4-.46,1.71-.09.33.2-.12,3.17.31,3.76.23.39-2.84.31.08,2.02-2.2.31,1.72,0-.71,1.62-.56.07-.02-.34,1.5.66.82,7.28-8.38,13.84,9.71-5.93,17.13-.8.56-3.26.43-2.88,1.4.19.13,2.19.54.33,1.07-6.75,1.29-4.63-7.53-8.84-9.36-12.99.7,7.3,1.23-2.69,14.11-4.24-1.13-8.67-2.69-7.47-8.3-3.04,3.21-1.34,7.49,1.01,9,17.44,7.56.4,22.81,7.74,27.52,1.13-4.57,1.19-9.49,5.07-13.83-8.68,17.81-.84,34.41,15.99,36.54,14.92,2.27,6.33-2.47,1.47-7.5-1.36-.86-5.06-7.23-.78-4.49,13.4,4.99-10.22-7.78-2.69-20.02,4.85-26.21,21.06-18.92,36.07-26.65,13.71,0,35.07-5.17,28.18,14.78-6.8,15.36-2.84,7-9.13,3.04,2.96,4.72,2.91,12.92-.24,19.51,2.12-9.56-3.03-17.64-9.97-21.86.58,6.19,8.09,8.27,6.02,15.94-.97,3.46-3.18,7.97-1.04,9.82.39,1.48.5,0,1.18-.31-.99,2.21.42,1.27.69,1.71.03,3.27-2.85,4.48-5.86,5.2-.32.1.34-.69-.21-.55-.38,1.26-1.17-.81-1.62,1.38,7.86-.09,12.81,7.17,11.08-4.16-1.45-8.12,14.29-17.85,10.54-8.01,4.26-2.68,8.3-2.09,12.48-4.99,5.54-2.42,9.4-14.05,3.6-12.35ZM100.57,96.58c.61-7.33,4.38-11.59,10.09-17.71-2.92,4.89-7.27,13.35-10.09,17.71ZM107.42,94.92c-.31,4.57-2.66,9.04-1.5,14.05.28.96,2.67,4.82-.52,2.4-6.57-1.08-.52-23.9,2.02-16.45Z"/>
        <path class="cls-6" d="M142.33,3.04c-1.12,1.74-.28.78.03,1.18.53.69,1.19,1.2,1.64,1.79.92,1.2,1.28,2.84,2.1,4.11-1.07,1.04-.1.94-.15,1.06-.57,1.56-1.38,3.15-1.98,4.71-.13.35-.03.71-.2,1.08-.39.88-1.47,1.34-1.56,1.48-.85,1.35.06,1.12.14,1.47.14.6-.76,1.35.57,1.1-.19.43-.56.81-.75,1.25-.54,1.29-1.42,3.43-1.82,5.18-3.11,13.81,12.59,10.45,17.93,18.06-.03.58-.57.33-.79.26-.6-.19-1.17-.46-1.82-.68.49,1,1.82,1.33,2.69,1.98,2.56,1.9,4.96,3.8,7.91,5.35,1.81.95,2.75,1.86,5.38,1.08.68-.2,2.01-1.08,2.34-1.19,2.08-.73,9.14-2.13,10.73-1.68.17.05,1.45.87,1.96,1.03.98.31,1.81-.03,2.36.06.19.03-.03.56.09.55.11,0,2.18-.48,2.28-.56.21-.17.56-1.92.55-2.25-.06-1.51-1.55-4.79-1.99-6.58-.37-.16-.81.34-.25-.83-.6-.83-1.9-1.66-2.68-2.49-1.76-1.88-3.34-3.2-3.6-6.18-.26-3.01.98-5.98-1.23-8.21-1.74-1.77-6.06-2.26-8.52.97,1.17.29,2.43-.24,3.69-.06,4.59.64,2.26,5.64-.11,9.21-.13.2-.15.62-.57.4-.39-.2-.91-1.05-1.64-1.43-5.87-3.05-17.3-1.02-20.78-6.97-.42-.71-1.09-3.32-.77-4.19l1.62-4.43c.09-.25,1.18-1.09.22-.97-.82.48-1.18,1.35-1.68,1.93l-1.36,2.91c-1.46,3.92-.19,9.17,2.87,10.67.59.29,1.75.24,2.03.51.18.18-.15.64-.07.78.09.15,2.59,1.31,3.11,1.69,4.25,3.1,4.47,4.75,4.8,10.26.04.73,1.3,1.97-.81,2.51.58-5.14-2.54-9.13-6.69-11-3.71-1.67-6.83-1.82-9.66-4.77-7.95-8.27,3.89-16.52.68-24.49-1.25-3.11-3.43-4.11-6.22-5.67Z"/>
        <path class="cls-6" d="M184.2,107.47c-1.29,3.13-5.55,6.44-8.37,8.76-.06.05-.6.06-.99.39-1.5,1.29-3.1,3.44-3.98,5.08-.59,1.1-1.01,1.5-.42,2.42-1.12.13-.49,1.08-.73,1.24-.19.12-.82-.27-.94.28,2.15,0-.4,1.38-.53,1.56-.37.54-1.08,2.8-1.49,3.14l-.48-.13c.64,1.15-.45,2.21-1.5,3.33-.14.25.73-.06.4.4-.86-.06-1.03,1.1-1.48,1.73-.22.3-.64.93-.68.99-.05.06-.78-.02-.86.99-.02.22.45.14.47.18.2.56-.56.49-.79.74-.55.58-1.36,2.54-2.11,3.47-.31.38-.83.19-1.16.47-.35.29-.08.69-.19.96-.07.17-.44.11-.68.38-.16.19-.16.62-.36.83-.15.16-.92.21-1.42.61-.56.45-.86,1.33-.93,1.38-.95.68,0-.93-.52-.83-.49,1.24-2.96,2.03-3.26,3.6-.57.09.11-.7.03-.83-.3-.49-1.08.5-1.14.51-.26.03-.7-.35-1.26.05-.12-1.34,1.27-2.38,1.92-3.73,1.81-3.78,3.31-10.12,2.57-13.43-.08-.36.31-.7-.49-.55-.34,6.64-2.74,14.66-8.13,21.03,1.03-2.86,2.49-5.77,3.23-8.64,2.05-7.85-.57-15.15-5.78-19.6-2.45-2.09-5.46-3.54-8.83-4.13-1.31.38.26.85.29.9.06.09-.07,1.1.43,1.31-3.88-2.18-8.2-3.86-11.78-6.36,2.98-.19,2.1-.35,1.5-1.81-1.81-4.37-1.54-5.64-7.75-5.66-.84,0-1.77.68-2.25-.28,2.03-1.39,2.7-2.33,5.3-3.19,3.89-1.29,7.54-.56,9.28,1.94,1.69,2.43.42,4.92,4.27,5.68,1.81.36,3.52-.23,5.37.02.1.01.2.03.29.05.12.03.24.06.35.09.06.02.11.04.17.06.06.02.11.04.16.06.01,0,.03,0,.04.02.17.07.33.15.48.24.08.05.16.09.23.14.12.08.24.17.36.26.05.04.1.08.15.12,0,0,.01.01.03.02.07.07.15.13.22.2.91.85,1.65,2.01,2.42,3.15.07.11.15.21.22.32.31.45.63.88.97,1.28.06.07.11.14.17.2.08.09.16.18.24.26.07.07.14.14.21.21.11.11.23.22.35.32.07.07.15.13.23.19.09.07.18.14.28.21.05.04.1.07.15.1.05.03.1.06.15.09.07.05.15.09.23.13.02.4-.5.7.63.55.13-.48-.39-.42-.63-.55,0-.06,0-.11-.02-.17,0-.04,0-.07-.02-.1,0-.04-.01-.09-.03-.12,0-.04-.02-.08-.03-.12-.02-.06-.04-.11-.06-.17-.03-.08-.07-.16-.11-.23,0,0,0,0,0,0,0,0,0,0,0,0-.02-.04-.04-.07-.06-.1-.02-.04-.04-.07-.07-.1-.03-.05-.06-.09-.1-.13-.03-.04-.07-.09-.11-.12-.08-.09-.17-.18-.26-.26-.07-.07-.14-.13-.21-.2-.11-.1-.22-.21-.33-.32-.07-.07-.14-.15-.21-.23-.03-.04-.07-.08-.1-.12-.03-.04-.07-.08-.1-.13-1.17-1.67-3.59-4.99-3.78-7.06-.22-2.41.6-5.44,2.11-8.03.3-.51,1.14-1.23,1.27-1.94l.73.28c-.21,1.52-.03,2.77.14,4.15.18,1.44.29,2.36.89,3.6-.37.73-.27,1.24-.17,1.85.03.2.07.39.12.58.02.09.04.17.06.25.17.62.41,1.17.7,1.68.05.09.1.17.15.25s.11.16.16.24c.11.16.23.32.35.46.05.06.1.12.15.19.2.23.41.45.63.66.08.08.17.16.25.23.09.08.17.15.26.23.49.42,1.02.8,1.57,1.18.06.04.12.08.18.12.09.06.17.12.26.18.14.1.29.19.43.29.66.43,1.33.87,1.98,1.33.13.1.26.19.39.28.02,0,.03.02.04.03.17.12.33.25.49.38.03.02.06.04.08.07.13.11.27.22.4.33.09.08.18.17.28.26.09.08.17.17.26.25.07.07.14.14.21.21.34.36.65.74.93,1.16.06.1.13.2.19.3.03.05.06.11.09.16.03.05.06.1.09.15.07.13.14.27.21.4,1.09,2.28,1.91,8.4.83,11.34l-2.99,8.16c.42-.07.73-.51,1.01-.82,5.92-6.49,11.01-15.1,13.05-22.43,1.35-.62,2.09-2.12,3.09-3.11,2-1.99,4.3-3.53,6.6-5.19,4.19-3.03,5.39-3.73,4.98-8.3,2.45.12,2.1,3.29,1.26,5.35Z"/>
        <path class="cls-6" d="M136.86,127.02l.03-.83c-.55.2-2.2,1.74-2.54,1.34-.09-.11.4-.64-.11-.51-.53,1.22-1.27.66-2.06.83-.08.02-1.02.28-1.44.39-.6.16-1.53.7-2.16.99l-.21-.55c-.74,1.46-1.64.95-2.72,1.17-.63.13-.99,1.03-.85-.06-1.44.89-4.04.3-4.29,2.21-1.54-.8-1.11.06-1.77.57-.85.65-2.13.46-2.23.54-.15.11-.26.98-.41,1.11-.72.64-.23-.72-.62-.55-.02.29-.59.69-.54.8.05.13.69-.17.41.31-.81,0-.76-.61-1.35.29l-.63-.56c-.26.24-.05.96-.26,1.1-.12.08-.82-.05-1.11,0-.3.32,1.07.36.25.82-.37.21-2.13-.04-2.27,1.66-.41.16.12-1.17-.62-.55-.06.05-.1.49-.36.73-.62.55-1.42.83-2.17,1.62-4.12,4.31-4.89,8.64-10.48,13.16-.44.36-3.51,2.58-3.72,2.21.8-1.67,2.24-3.27,3.11-4.92.15-.29.77-1.21.22-1.17-5.07,5.99-11.56,10.9-18.8,11.61-3.97.39-4.16-.93-7.58,3.33-1.89,2.36-3.52,5.39-5.35,7.72-.29.37-4.33,4.24-3.86,2.65,1.05-1.58,2.17-3.15,2.61-4.84-6.7,4.56-14.83,3.65-15.33-2.76,0-.09-.01-.18-.02-.28-.16-3.75,3.01-9.62-2.09-10.52l.96-1.1c1.37.11,4.05,1.72,4.15,2.98.13,1.81-.84,4.66-.84,6.77,0,.03,0,.05,0,.08.06,4.54,4.26,6.92,9.58,4.84,5.3-2.07,8-9.05,6.12-12.48-.18-.33.38-.82-.62-.25.64-2.37.2-3.93-.64-5.3-.6-.98-1.39-1.87-2.14-2.89-.2-.28-.54-.41-.23-.94,1.59.34,3.09,1.13,4.12,2.15.06.06.12.12.17.18,1.95,2.1,1.72,5.16,5.12,5.97.61.15,3.78.65,4.31.56.2-.04.34-.46.6-.54.7-.21,1.62-.17,2.33-.6.81-.49,2.53-3.04,3.96-4.03l4.52-2.04c-5.06.43-7.16-3.1-10.54-4.95-.32-.17-.66-.34-1-.51-.55-.27-1.12-.53-1.67-.77-.83-.37-2.21.2-.72-1.8,3.05-.06,4.71.14,6.26.7,1.2.43,2.34,1.09,4.01,2.01.34.19,1.27.28,1.34.33.02.02-.23.45-.02.56,2.68,1.47,3.84,1.84,7.74.27-.1.77-2.03,3.03-.71,3.05.17,0,3.08-1,3.43-1.15,9.59-4.14,9.49-15.47,19.31-19.76,5.68-2.48,15.53-1.43,21.19-1.5.47,0,1.17.18,1.62-.28.38.41,1.58.48-.37,1.38Z"/>
        <path class="cls-5" d="M119.04,43.17c1.26.61,2.67,1.02,3.86,1.73,1.85,1.11,4.96,3.98,5.49,5.95.09.32-.26.99-.14,1.37.09.26.77.22.47.77-.64-.1-1.43.92-1.66.98-1.47.35-1.56-.65-3.49.97-1.82,1.53-.77.59-2.63,1.51-2.47,1.22-7.66,5.48-8.95,7.76-.31.56-.28,1.33-.34,1.38-.13.09-.72-.18-.91.15-1.58,2.88,1.72-.09,2.32-.43,3.12-1.78,6.46-2.7,9.45-3.31l2.52.27c-4.08.7-8,2.01-11.91,4.57-7.6,4.96-11.27,10.49-13.81,18-1.96,5.81-2.19,10.83-.73,15.62l.6-.14c.22-2.86-.22-4.9.71-8.01,3.49-11.74,11.48-21.51,24.35-25.82,5.77-1.93,11.14-2.14,16.54-2.29,6-.17,11.86.15,17.86,0,.37-.22-.27-.99-.37-1.09-1.77-1.88-2.74-3.05-4.26-5.14-.83-1.13-2.74-2.27-2.41-4.01-.44-.25-.92-.44-1.46-.55-.31-.06-1.3.09-1.38,0-.03-.03.46-1.14-.35-.55s.32.52.35.55c.03.03-.15.65-.03.92.68,1.5,2.83,3.25,4.01,4.57.77.86,1.63.3-.22,1.99.17-1.13-1.31-.22-2.13-.25-.51-.02-.17-.56-.37-.6-.5-.09-1.21.33-1.71.28-.62-.06-2.17-.95-2.95-1.09-2.18-.39-5.83-.64-8.09-.59-.14,0,.11-.49-.06-.49-3.01-.01-4.32-3.29-5.68-5.3-.8-1.18-1.47-2.49-2.28-3.6-2.65-3.64-5.21-5.18-10.22-6.09Z"/>
        <path class="cls-6" d="M116.75,26.01c-.1.01-.18-.01-.28,0-.39.58-2.1,1.23-1.49,1.8,1.25.52,2.99,1.02,4.1,1.66,2.69,1.56,2.86,3.2,4.32,5.55,2.6,4.17,10.9,3.31,13.19,8.98.49,1.22,1.5,7.22.11,8.41-.33.29-1.01.02-1.12.72h-.27c.65-1.24-1.71.25-2.46.25-.11,0-.43-2.25-1.31-.53,1.36,2,2.68,5.28,5.68,5.3.17,0-.08.5.06.49,2.26-.05,5.91.2,8.09.59.78.14,2.33,1.03,2.95,1.09.5.05,1.21-.37,1.71-.28.2.04-.14.58.37.6.82.03,2.3-.88,2.13.25,1.85-1.69.99-1.12.22-1.99-1.18-1.31-3.34-3.07-4.01-4.57-.12-.27.05-.89.03-.92-.03-.04-1.14.03-.35-.55s.32.52.35.55c.08.09,1.08-.06,1.38,0-1.06-1.63-2.44-2.99-3.4-4.7-1.45-2.58-2.13-5.7-3.98-8.02-2.06-2.58-4.82-3.38-7.71-4.99-4.82-2.68-3.21-3.24-5.52-7.2-1.09-1.87-3.66-3.09-6.12-3.31l-4.89.8c-.61.12-1.2-.05-1.78.03Z"/>
        <path class="cls-2" d="M142.33,3.04c-1.49-.83-3.05-1.59-4.49-2.49-.3-.11-.58.07-.56.41.07,1.05,3.71,4.03,4.43,5.26,2.75,4.72-.16,8.44-3.37,13.9-.48.81-1.21,1.76-1.31,1.94-1.89,3.27-2.92,6.39-2.91,9.55l.94,4.07c2.89,1.61,5.65,2.41,7.71,4.99,1.86,2.32,2.53,5.44,3.98,8.02.96,1.71,2.34,3.07,3.4,4.7.54.11,1.02.3,1.46.55.09.05.03.47.28.55,1.19.36,1-.64,1.22-.79.17-.12,1.46-.08,1.63.09.29.28-.25,1.16-.2,1.26.09.15,1.45-.16,1.61.04.09.11-.28,1.08-.14,1.32.02.04.88-.22.99.1s-.65.98.31.77l.34-.55-.06.56h.27c.15-.37.11-.64.48-.55-.43.88.26.25.7.39,1,.32,1.21.74,1.75,1.37.26.3,1.04-.05.43,1.01.51.09.4-.69.58-.83.52-.4,1.9,1.32,2.21,0-1.24-.24-10.29-7.61-11.76-8.91-.73-.64-1.24-1.47-1.89-2.16-1.47-1.57-3.35-3.06-3.51-5.53.67-.39,5.61,1.73,6.38,2.21.17-.01.42-.03.55,0,.14.03.19.13.18.28.54.27,1.18.37,1.73.55.66.22,1.22.49,1.82.68.22.07.76.32.79-.26-5.35-7.61-21.05-4.26-17.93-18.06.4-1.75,1.28-3.89,1.82-5.18.18-.44.56-.82.75-1.25-1.34.25-.43-.51-.57-1.1-.08-.35-.99-.11-.14-1.47.09-.14,1.17-.6,1.56-1.48.16-.37.06-.73.2-1.08.59-1.57,1.41-3.15,1.98-4.71.05-.13-.92-.02.15-1.06-.82-1.27-1.18-2.91-2.1-4.11-.45-.59-1.11-1.1-1.64-1.79-.31-.41-1.15.55-.03-1.18Z"/>
        <path class="cls-2" d="M107.11,27.4c.07.05.06.37.26.51,1.7,1.15,4.31,1.74,6.47,2.26-.08.46-.32.58-.76.76-.98.4-4.91,1.2-6.05,1.37-3.34.51-7.89.84-9.92-.94-.2-.18-.76-.58-.8-.63-.35-.41.64-1.52-1.37-1.13,2.25,3.5,5.28,5.43,10.66,5.25,3.54-.12,7.83-2.04,10.67-.51,2.28,1.22,2.15,4.07,3.53,5.92,2.76,3.7,9.31,1.29,13.27,3.86,1.37.88,2.04,1.64,2.36,3.33l-1.08.69.88-.13c-1.04,1.16-.25.87-.21,1.04.29,1.29-.45.41-.72.34-.31-.07-1.04.13-1.15.09-.09-.03-.07-1.68-.91.6-1.27-.15-.05-.98-.15-1.1l-2.87.27c.81,1.11,1.48,2.42,2.28,3.6.89-1.72,1.21.53,1.31.53.75,0,3.12-1.49,2.46-.25h.27c.11-.71.79-.44,1.12-.73,1.39-1.2.38-7.2-.11-8.41-2.29-5.67-10.59-4.81-13.19-8.98-1.46-2.35-1.63-3.99-4.32-5.55-1.11-.64-2.85-1.14-4.1-1.66-.61-.56,1.1-1.22,1.49-1.8-3.1.42-6.3,1.2-9.36,1.38Z"/>
        <path class="cls-2" d="M110.13,43.31c-1.04.19-5.15,1.13-5.75,1.88-.44.55.12,1.25-1.75,1.51-.81.11-.74-.88-1.27.91-.56-1.68-2.96,1.29-.89,1.67-.51.6-.73.02-.67,1.1.66-.93,2.91-.19,4.25-.28.28-2.28.33-.99.94-1.16.7-.65,1.29-1.56,1.23-.22,1.26-3.09,1.37.3,2.14-.55.74-.5-.41-.57-.3-.69,1.02-.51,1.88-.74,2.46-1.8,13.76,2.64-1.77,21.16-12.16,19.93,14.33-2.81,17.15-20.3.98-14.39-11.66,1.28-6.94-6.05-9.78-3.87-.23-.81,2.53-1.77,2.19-2.21-.06-.08-.77.08-.83,0,1.03-1.02.47-4.8.92-5.53,2.34,6.34,31.38.62,18.28,3.73ZM92.18,45.11l.1-.28c-.21.09-.25.18-.1.28ZM109.53,47.6l.1-.28c-.21.09-.25.18-.1.28Z"/>
        <path class="cls-6" d="M76.38,91.6c-2.48-1.44-6.5-2.22-9.92-1.9-.63.06-5.29.72-4.74,1.9.06.14,2.73.48,3.34.69,2.29.79,3.07,1.88,3.79,4.01.19.58.2.97.32,1.38.06.21.04.41.07.55.14.52.56.71.84,1.11l.71-.83c-1.18,1.38,1.28,2.09,1.88,1.64.18-.14.11-.75.45-.81-.04,1.18.59,1.22,1.7,1.56.2.06.65-.19.68-.17.28.25-1.25,3.92.83,1.93-.06,1.05.9.82,1.26,1.21.52.55.54,1.63.86,2.11,1.41,2.12,2.01,3.92,3.2,6.36.13.28,1,1.72,1.48.84-.89.12-.1-.4-.08-1.04.16-3.78.05-7.98-.61-11.42-2.03,2.4-1.44-.33-1.74-.74-.26-.35-.85-.37-1.13-.91-.46-.9-.01-2.96-1.11-3.34l1.58-.55c-.97-1.24-2.25-2.78-3.66-3.6Z"/>
        <path class="cls-2" d="M147.88,33.21c2.84,2.95,5.95,3.1,9.66,4.77,4.15,1.87,7.27,5.86,6.69,11,2.11-.55.86-1.78.81-2.51-.33-5.52-.55-7.16-4.8-10.26-.52-.38-3.02-1.54-3.11-1.69-.08-.14.25-.6.07-.78-.27-.27-1.43-.22-2.03-.51-3.06-1.5-4.33-6.75-2.87-10.67l1.36-2.91c-2.53,2.93-4.47,6.15-5.41,9.52l-.4,4.04Z"/>
        <path class="cls-6" d="M202.9,40.13c-.9-.15-1.14,1.04-1.24,1.11-.07.05-.37-.48-1.24-.02-1.23.65-.11.37-.17.85-.58.44-1.58.31-1.73.37-.35.13-1.83,1.21-1.94,1.25-.19.06-.47-.35-.69-.22-.17.1-.07.65-.49.53.69-1.1,1.42-2.25,1.99-3.41.28-.57.53-1.14.71-1.71.14-.43-.13-.39-.12-.41.86-3.38.25-5.65-1.33-8.04-.84-1.26-6.78-6.91-5.92-8.42.65-1.15,2.23,1.11,2.7,1.46,5.1,3.81,9.43,6.15,9.72,12.69.05,1.18-.02,2.49-.25,3.97Z"/>
        <path class="cls-2" d="M73.06,141.41c-1,.02-3.76.08-4.64.32-.4.11-.68.41-.75.78,3.58.83,8.02,3.28,7.8,7.35-.1,1.88-1.29,6.53-4.2,6.21.61.15,3.77.65,4.31.56.2-.03.34-.46.6-.54.7-.21,1.62-.17,2.33-.6.81-.49,2.53-3.04,3.95-4.03l4.52-2.03c-5.06.43-7.16-3.1-10.54-4.94-.84-.46-1.78-.89-2.67-1.29-.83-.37-2.21.2-.73-1.79Z"/>
        <path class="cls-6" d="M166.38,148.05c-1.35,1.41-1.52,3.09-2.23,4.57-1.36,2.82-6.3,5.71-8.79,7.96-5.11,4.61-8.78,11.2-9.97,16.81-.47-.09-.27-.56-.25-.93.17-3.6,2.32-9.35,4.6-12.97,3.72-5.93,9.24-10.11,14.34-15.16.61-.6,1.23-.95,2.09-1.94l.43,1.11c-.06.18-.14.37-.2.55Z"/>
        <path class="cls-6" d="M87.41,131.73c-.66.19-5.12,2.64-4.81,3.32,3.69-1.43,8.53-.42,7.53,3.6.85-.18.87,1.62.96,1.66.91.47,3.37-.3,2.46,1.1.97-.27,1.12-.45,1.34-1.39l1.63.83c2.34-5.95-2.76-10.96-9.1-9.13Z"/>
        <path class="cls-6" d="M175.19,127.67c-3.25,3.77-4.01,3.3-6.56,8.2-.04.08-.36.31-.53.67-.69,1.37-1.29,3.17-1.95,4.59-.42.16.14-1.16-.63-.55-.15.12.07.76-.02.83-1.39-.05-1.22.39-1.85,1.01-.11.11-.9.13-.68.64.02.04.56-.06.5.17-.36,1.34-1.44,1.18-1.54,1.25-.29.22-.35,1.53-1.19,1.63,1.48-6.4,4.89-12.99,11.02-17.99,1.65-1.35,4.1-2.4,5.22-4.43.95.86-.84,2.88-1.78,3.97Z"/>
        <path class="cls-2" d="M72.74,42.32c-.1-.52-.33-2.46.78-2.2.26.07,1.43,2.35,1.81,2.73.97.96,2.79,2.06,4.15,2.54l-.46.53c3.61,1.81,5.43,6.05,4.27,10.75-.62,2.51-1.93,4.95-2.41,7.53-1.43.86-1.67,3.85-1.56,4.89.63,6,10.38,5.61,10.95,14.06.31,4.67-2.82,10.08-2.57,14.34.01.25-.34.53-.33.76.03.69,1.25.48,1.3.55.12.22-1.02,1.58.05,1.38l-.1.27c-1.39.13-.05.73,1.01.28.97-4.24,1.16-7.84,3.76-12.18.23-.38.87-1.52,1.3-1.65-3.5,6.97-4.03,14.38-2.95,20.48,1.66,9.39,10.45,14.96,20.36,16.29,1.11.15,3.29-.28,3.77.58-3.6.71-6.07,1.66-9.22,4.45-5.7,5.06-6.99,13.64-14.27,16.58-3.9,1.58-5.07,1.21-7.74-.27-.2-.11.04-.55.02-.56,2.77-1.55,4.72-2.85,5.45-5.81.84-.18.87,1.62.96,1.66.91.47,3.37-.3,2.46,1.1.97-.27,1.12-.45,1.34-1.39l1.63.83c2.34-5.95-2.76-10.95-9.1-9.13-.24-1.1-1.89-.67-2.78-.9-6.95-1.84-12.03-7.94-13.42-14.68-.41-1.97-.66-10.34-1.69-11.12-.84-.63-3.27.27-1.44-2.22l1.17-4.56c.14.52.56.71.84,1.1l.71-.83c-1.18,1.39,1.28,2.09,1.88,1.64.18-.14.12-.76.45-.81-.04,1.19.59,1.22,1.7,1.56.2.06.65-.19.68-.16.28.25-1.25,3.92.83,1.92-.06,1.05.9.82,1.26,1.21.52.55.54,1.63.86,2.11,1.41,2.12,2.01,3.92,3.2,6.36.13.28.99,1.72,1.48.84-.89.12-.1-.4-.08-1.03.17-3.78.05-7.99-.61-11.42-.52-2.69-.76-3.45-2.4-5.53-.97-1.24-2.25-2.78-3.66-3.6l1.19-.96,2.72-7.89c.04-1.47-5.25-6.16-6.28-7.86-1.66-2.76-1.95-6.69-.67-10.54,1.54-4.65,5.58-9.6,4.82-14.06-.51-3.05-4.79-4.53-5.44-7.97Z"/>
        <path class="cls-2" d="M108.43,93.26c.42-4.27,2.49-10.42,5.2-14.72,3.77-5.99,11.29-9.34,17.37-10.15,2.02-.27,3.99-.12,5.89-.31,1.89-.19,3.85-.75,5.71-.83.47-1.26.62-2.26,2.17-2.47,3.64-.48,8.18.11,11.9-.01,4.27-.15,8.74-.66,13.04-.87,2.32,1.26,3.29,4.3,3.82,6.94.57,2.82.41,5.39-.58,8.72-1.04,3.49-2.76,6.52-4.98,9.82l-1.44-4.71c-.7-.75-1.35-2.14-2.71-2.07.96,1.03,1.22,2.67,1.58,4.12.47,1.84.95,7.84.16,10l-1.98,5.4c-.74-1.07.48-3.45.64-4.78.62-5.26-4.07-11.57-7.37-14.59.56-.29.66-1.05.84-1.52.59-1.56,2.72-6.7,2.52-7.72-.06-.28-.18-.57-.46-.67l-24.29-.07c-10.9.54-23.49,9.46-27.01,20.49Z"/>
        <path class="cls-2" d="M64.89,156.91c-.56,2.04-1.89,5.18-3.87,6.78-.22.18-3.15,2.15-2.47.69-.78.68-1.51,1.37-2.37,1.94,1.59.84,4.36.67,3.21,3.32,5.3-2.07,8-9.06,6.12-12.48-.18-.32.38-.82-.62-.25Z"/>
        <path class="cls-5" d="M91.05,58.39c-.41,1.16.98.89,1.45,1.27,2.25,1.77,1.59,3.75,2.56,6.02.73,1.71,2.29,2.79,4.82,2.08,1.86-.53-.14-.94-.33-1.07-.23-.16.02-.53,0-.54-.25-.15-.69-.25-1.18-.55-.65-.39-1.68-.37-2.23-1.1-1.7-2.26-.37-5.55-5.1-6.09Z"/>
        <path class="cls-2" d="M98.71,59.77c-2.35-.48-.53-4.95,2.46-4.64s.89,5.32-2.46,4.64ZM100.47,57.53c.86-.44.94-2.31-.46-1.6-.86.44-.94,2.31.46,1.6Z"/>
        <path class="cls-2" d="M159.28,184.84c.09-.27.19-.54.28-.81-.05.26-.14.54-.28.81Z"/>
        <path class="cls-2" d="M91.07,65.86c-.42,2.27-3.45,5.64-5.9,5.53,1.01.44,1.88,1.09,3.19,1.11,1.45-2.37,2.31-4.28,2.71-6.64Z"/>
        <path class="cls-2" d="M116.75,26.01c.57-.08,1.16.09,1.78-.03l4.89-.8c-1.85-.17-4.64.15-6.67.83Z"/>
        <path class="cls-5" d="M210.15,38.47c-.69-.19-.75.42-.96,1.11l-.22-1.66c1.02-.3.94.37,1.18.55Z"/>
        <path class="cls-2" d="M166.58,147.5l-.43-1.11c1.49-1.72.8-.06.43,1.11Z"/>
        <path class="cls-2" d="M188.14,37.36l-1.85-.97c.39,1.08.26,1.43,1.85.97Z"/>
        <path class="cls-2" d="M68.85,96.3c-.14.59-.54,1.56.32,1.38-.12-.41-.13-.81-.32-1.38Z"/>
        <path class="cls-2" d="M202.8,41.61c.03-.26.04-.5.05-.73.03.17.02.42-.05.73Z"/>
        <path class="cls-2" d="M137.5,0c-.21.09-.25.18-.1.28l.1-.28Z"/>
        <polygon class="cls-2" points="199.25 66.69 199.15 66.97 198.93 66.83 199.25 66.69"/>
        <path class="cls-5" d="M137.24,125.64c-.46.46-1.15.28-1.62.28-5.65.07-15.51-.98-21.19,1.5-9.82,4.29-9.72,15.61-19.31,19.76-.36.15-3.26,1.15-3.43,1.15-1.32-.02.61-2.28.71-3.05,7.28-2.94,8.57-11.52,14.27-16.58,3.15-2.79,5.61-3.74,9.22-4.45.05,0,.11-.02.16-.03h0c.12-.02.25-.04.38-.06.13-.01.25-.03.38-.04.39-.04.77-.06,1.16-.1.16-.02.32-.04.47-.06.22-.03.44-.08.66-.13.51-.14.85-.16.67-.7-2.32-2.55-5.3-4.66-7.6-7.2-.68-.75-3.08-3.55-2.91-4.56.31-1.74,1.7-.11,2.12.07,1.86.79,3.81,1.61,6.27,1.18,1.52,1.1,3.06,2.24,4.6,3.32,3.58,2.51,7.9,4.18,11.78,6.36.06.04.21-.03.28,0-.03.7.66.78.98,1.11.07.07.1.2.17.28l.09.14s.05.1.09.14c.14.15.29.31.44.46.4.4.79.79,1.17,1.21Z"/>
        <path class="cls-6" d="M135.44,171.95c-.38.16-1.29.67-1.46.31,4.81-3.91,11.02-8.41,13.65-13.83.77-1.59,1.14-3.49,1.88-5.12.5.1.25.58.22.96-.6,7.52-6.14,14.31-14.29,17.69Z"/>
        <path class="cls-6" d="M135.28,123.42c.19-.95-.41-.79-.98-1.11-.03.7.66.78.98,1.11Z"/>
        <path class="cls-6" d="M160.32,147.22c-.05-.39.45-.74.47-.55.05.39-.44.74-.47.55Z"/>
        <path class="cls-6" d="M135.63,123.98l-.18-.28c.07.08.1.2.18.28Z"/>
        <path class="cls-6" d="M151.82,148.88l-.1.28c-.15-.09-.11-.18.1-.28Z"/>
        <path class="cls-5" d="M189.74,42.06c-.56,1.17-.12.67.25.83.45,1.79,1.93,5.08,1.99,6.58.01.33-.34,2.08-.55,2.25-.1.08-2.17.55-2.28.56-.12,0,.1-.52-.09-.55-.55-.09-1.38.26-2.36-.06-.51-.16-1.79-.98-1.96-1.03-1.59-.45-8.64.95-10.73,1.68-.33.12-1.67,1-2.34,1.19-2.63.77-3.57-.14-5.38-1.08-2.95-1.55-5.35-3.45-7.91-5.35-.87-.65-2.2-.98-2.69-1.98-.55-.19-1.19-.29-1.73-.55-.1-.05-.14-.18-.18-.28-.13-.03-.39-.01-.55,0-.3.02-2.31.46-2.42.56.18.95-.25,1.73-.46,2.76.65.69,1.16,1.52,1.89,2.16,1.48,1.3,10.52,8.67,11.76,8.91,1.51.29,4.14-.12,5.9.04,12.23,1.11,12.7,14.69,4.81,25.83-1.19,1.68-3.44,3.6-4.05,5.41.65-.47,2.09-1.28,2.63-1.75,10.03-8.88,17.48-21.35,19.68-32.28.77-3.83.31-11.57-2.98-13.01-.09-.37.11-.34-.25-.83Z"/>
        <path class="cls-5" d="M174.39,101.28s-.27-.19-.13-.39c.3-.44,1.07-.17,1.24-1.11.05-.29-.42-1.53-.58-1.72-1.42-1.71-4.4-.28-6.51,1.43-3.26,2.63-4.35,6.72-4.56,9.81-.11,1.75.69,4.31-.11,5.97-1.02,2.14-1.42.22-1.71.02-2.33-1.59-6.36-.6-9.27-1.83-.11-.05-.4.03-.55,0l-.18-.28c-2.47.05-5.5-2.59-6.4-4.43-.37.73-.27,1.24-.17,1.85.97,6.18,8.36,6.53,10.91,11.86,1.09,2.28,1.91,8.4.83,11.34l-2.99,8.16c.42-.07.72-.51,1-.82,5.92-6.48,11.01-15.09,13.05-22.43,1.54-5.52,1.51-11.46,5.64-16.88.09-.11.25-.21.38-.28.04-.09.07-.19.1-.28Z"/>
        <path class="cls-2" d="M153.01,92.36c0,.51-.63,1.66-.24,2,.75.67,1.11-.3,1.41-.49.29-.18.89.62,1.32-.34-.06,1.58,1.19.84,2.04,1.15.34.13.08.75.34.81.34.08,1.74-.11,1.79-.85-.05.48.09.88-.05,1.55-.43,2.1-2.04,5.47-2.1,7.2-.01.32.53,1.12.63,1.41.12.34-.19.91-.05,1.12.07.1.42.02.48.09.17.2.06.96.6.53.18-.14.07-.92.58-.83-.99,2.21.42,1.27.69,1.71.47.76-1.47,3.85-2.57,4.39-.6.29-.85,0-1.06.04-.24.05-.41.18-1.37.33-.29.04-.66.39-.85.44-.32.09.33-.69-.21-.55-.38,1.26-1.17-.81-1.62,1.38-.11-.05-.4.03-.55,0l.42-.42c-.06-.28-.4.14-.6.14-2.47.05-5.5-2.59-6.4-4.43-.6-1.23-.72-2.16-.89-3.6.9.86,1.77,2.26,3.34,2.21l3.09-8.44c.48-1.3-3.19-1.29-3.16-3.46l2.39.28c.4-2.32-.09-2.54,2.18-4.43-.23.57.43.78.43,1.04ZM152.01,93.25c.19-.16.68-.35.48-.54-.22.18-.69.36-.48.54Z"/>
        <path class="cls-5" d="M102.36,107.01c.33.95,2.18,3.7,3.04,4.35,3.19,2.41.79-1.44.52-2.4-1.29-4.51.97-8.01,1.31-12.46.02-.24-.46-.18-.42-.37.08-.33.51-.68.61-1.21.1-.56-.02-1.9-.68-1.94-.95,0-2.41,2.72-2.78,3.5-1.4,2.97-2.46,8.07-1.59,10.54Z"/>
        <path class="cls-2" d="M112.43,108.76c1.63,1.37,3.46,2.6,5.22,3.87,1.52,1.1,3.06,2.24,4.59,3.32,2.98-.19,2.1-.35,1.5-1.81-1.81-4.37-1.54-5.65-7.75-5.66-.84,0-1.77.68-2.25-.28-.17.12-.98.23-1.31.55Z"/>
        <path class="cls-2" d="M109.82,80.17c-1.88,1.72-4.03,3.42-4.96,5.45-.04.1-1.01.25-.85,1.55l-.45-.28c.06,1.11-.92,1.97-1.33,2.94-1.03,2.42-1.2,4.41-1.67,6.75.19.43.51,0,.7-.41,1.01-2.09,1.82-4.2,2.94-6.29,1.67-3.13,3.78-6.12,5.52-9.2.25-.45,1.66-1.58.93-1.81-.25.39-.51.99-.84,1.3Z"/>
        <path class="cls-5" d="M80.04,95.2l-1.58.55c1.1.38.65,2.44,1.11,3.34.28.54.87.56,1.13.91.3.41-.28,3.13,1.74.74-.52-2.69-.76-3.45-2.4-5.53Z"/>
        <path class="cls-2" d="M132.6,112.63c1.81.36,3.52-.23,5.36.02,3.81.53,4.72,5.91,8.12,7.73.02.4-.5.71.63.55.12-.48-.39-.42-.63-.55-.08-1.33-1.15-1.68-1.81-2.63-1.17-1.68-3.59-4.99-3.77-7.06-.57,1.88-3.26.65-4.86.85-.81.1-2.25.55-3.05,1.08Z"/>
        <path class="cls-2" d="M142.61,102.67c.3-.51,1.14-1.24,1.27-1.94l.73.28c.04-.32,1.12-2.55-.17-1.81-.46.27-2.18,2.92-1.82,3.47Z"/>
        <path class="cls-6" d="M153.23,44.28c-.77-.48-5.72-2.6-6.38-2.21.15,2.47,2.03,3.96,3.51,5.53.21-1.03.64-1.81.46-2.76.1-.09,2.12-.54,2.42-.56Z"/>
        <path class="cls-6" d="M153.96,44.55c.02-.15-.04-.25-.18-.28.04.1.08.23.18.28Z"/>
        <path class="cls-6" d="M109.63,47.32c-.21.09-.25.18-.1.28l.1-.28Z"/>
        <path class="cls-6" d="M173.91,101.84c.21.03.29-.09.38-.28-.13.07-.29.16-.38.28Z"/>
        <path class="cls-6" d="M100,55.93c-.86.44-.94,2.31.46,1.6.86-.44.94-2.31-.46-1.6Z"/>
        <path class="cls-6" d="M148.02,95.47l2.39.28c.4-2.32-.09-2.54,2.18-4.43.44-.37,1.12-.47,1.23-1.11-3.13-.23-5.76,2.24-5.8,5.26Z"/>
        <path class="cls-6" d="M152.04,113.18l.18.28.42-.42c-.06-.28-.4.14-.6.14Z"/>
      </g>
      <g>
        <path class="cls-12" d="M331.8,46.97c2.03.39,5.45,1.26,7.32,1.85,1.36.43,3.89,1.32,5.1,1.85,8.32,3.61,15.31,9.81,19.09,16.1.42.69,2.53,3.96,1.77,4.51l-34.29,11.74-.76-.32c-8.73-23.73-62.67-14.17-70.53,12.32-3.06,1-5.04,2.17-7.58,3.7-.05.03-.54-.08-.98.21-2.3,1.48-4.58,4.35-5.39,6.26s-.65,3.18-.92,4.93c-.02.1-.08.21-.11.31-.06.2-.16.41-.23.62-2.82-.9-1.8-5.65-.67-7.85,1.69-3.31,6.01-5.03,7.07-6.58.54-.79.27-2.4.55-3.28,6.48-20.1,34.62-34.37,62.39-31.52,11.94,1.23,19.63,5.69,24.42,12.55.87.1,4.44-1.8,5.38-2.12,1.4-.49,3.41-1,5.01-1.54,1.02-.35,4.65-1.24,5.05-1.74.88-1.11-1.69-2.76-2.24-3.49-2.75-3.66-4.44-5.29-9.07-8.01-7.55-4.43-15.82-6.28-26.86-6.78l-.28-.21-.61.21c-1.21-.04-2.31-.14-3.44-.31,1.55-2.21,1.52-2.74,4.03-4.93,5.73.38,11.36.51,16.77,1.54Z"/>
        <path class="cls-1" d="M343.43,72.22c-.94.33-4.51,2.23-5.38,2.12-4.8-6.87-12.48-11.32-24.42-12.55-27.76-2.85-55.9,11.42-62.39,31.52-.28.88,0,2.49-.55,3.28-1.06,1.55-5.38,3.27-7.07,6.58-1.12,2.2-2.15,6.95.67,7.85.09.03-.06.47.77.31.3-.73.69-1.06-.55-.92.03-.1.1-.21.11-.31,2.41-1.17,4.86-1.53,7.46-2.16-.56,1.33-.39,3.43.08,4.62-4,1.14-12.28,5.59-14.94,8.01-6.19-5.92,4.23-14.43.12-20.94.99-.32.69-1,.63-1.45-.88-6.18-7.05-10.27-10.97-15.18-.99,4.32,2.12,7.65,2.88,11.55.19.97.06,5.36.24,5.64.4.61,4.44.41,5.66.07-1.19,4.18-3.53,8.67-8.52,12.11-.93.64-3.97,2.51-5.03,2.01-.21-.1-1.24-2.41-1.34-2.83-.42-1.77.02-4.14.52-6.06.03-.1.08-.21.11-.31,1.23-1.31,2.09-3.68,1.81-4.93,1.31-4.46.34-5.34-1.17-8.93-1.01-2.41-2.54-4.92-2.41-7.63.37-7.76,8-16.01,20.01-19.16.4.34.73.39.12.93-.81.72-3.07,1.74-4.16,2.75-3.43,3.2-3.62,6.58-2.81,9.57.5,1.85,1.81,5.81,4.3,6.47.84.22,1.73-.05,2.1.45.29.39-.42.81-.36,1.17.49,3.03,1.06,4.06,2.73,6.59.37.57,1.68,4.33,3.24,3.5,1.04-.55-.53-1.03-.5-1.1,2.66-6.74,5.32-12.81,11.99-18.99,17.39-16.09,47.3-22.77,69.27-16.8,8.71,2.37,14.75,7.17,17.73,13.17Z"/>
        <path class="cls-12" d="M258.3,111.65c.03.25.87,1,.88,1.23,0,.08-.07.2-.11.31-11.29,2.1-21.41,8.33-23.29,16.19-.1.41.2.66.19.75-.85,5.97,3.48,9.03,9.38,12.01,19.09,9.67,51.34,7.8,74.83-5.85,1.86-1.08,8.04-5.78,8.95-6.13,1.88-.72,8.94-.32,11.87-1.57.28,0,.63.03.89,0-26.72,24.23-72.75,32.01-102.09,18.95-11.89-5.29-19.82-14.97-22.91-24.8-.55-1.74-.51-4.08-.97-5.85,3.32.86,5.64,1.59,9.84.95-.15,2.41,2.81,10.51,5.44,11.36.81.26.78-.43.94-.76,1.26-2.7,2.33-5.33,5.1-7.86s10.94-6.87,14.94-8.01c1.72-.49,4.41-.92,6.12-.92Z"/>
        <path class="cls-11" d="M281.66,49.13c9.35-2.15,14.05-8.2,23.23-10.84,8.08-2.32,18.71-1.06,25.3-5.82,1.15-.83,3.53-3.78,4.16-3.98.87-.28.53.38.55.67.07,1.74-.57,2.27-1.74,3.81-.16.21.07.66-.06.75s-.7-.06-.89,0c-1.37.46-3.38,2.1-5.1,2.9-9.4,4.4-18.87,5.57-20.95,14.81-.45,1.99.65,1.31,3.05,1.38,9.62.29,16.68,1.04,24.75,3.64,2.4.77,5.7,3.51,8.23.98,4.62,2.71,6.32,4.34,9.07,8.01-.69.59-3.26.88-3.62,1.41-.2.3,1.44,2.96.81,3.83-1.6.54-3.61,1.05-5.01,1.54-2.97-6-9.01-10.8-17.73-13.17-21.97-5.97-51.88.71-69.27,16.8-6.68,6.18-9.33,12.24-11.99,18.99-.02.06,1.54.54.5,1.1-1.55.83-2.86-2.94-3.24-3.5-1.68-2.53-2.25-3.55-2.73-6.59-.06-.36.66-.78.36-1.17-.38-.5-1.27-.22-2.1-.45.11-.76.77-1.44,1.23-2.16.86.21,2.01,4.42,2.97,4,6.01-10.18,16.92-19.26,30.95-25.55,6.97-3.13,16.28-5.17,22.16-9.15,5.28-3.57,9.12-9.05,16.18-11.19.72-.22,3.74-.56,3.11-1.23-.78.1-1.73.47-2.44.62-.82.16-1.61.18-2.34.31-.21.04-.42.18-.56.31-7.41,1.2-10.85,5.74-16.23,9.08-6.44,4-16.48,6.29-24,9.71,1.33-2.58,5.55-3.89,8.37-5.85.15-.11.41-.18.56-.31l.11-.31c1.28.07,3.66-2.47,4.35-3.39Z"/>
        <path class="cls-12" d="M347.15,121.5c-2.99.79-4.11.96-7.12,1.23h-3.11c3.04-4.68,5.02-9.11,6.86-13.86,1.08-2.78,3.19-7.32,3.17-9.86,0-.21.49-.65-.03-.62h-41.3c-.61.06.06.51,0,.62-1.34,2.24-3.02,5.92-3.47,8.18-.06.31-.19,1.06.3,1.06h22.89l-5.86,14.78c-3.33.5-9.89,2.3-12.91,3.7l5.09-6.62,1.75-4.77h-23.12l8.24-22.48h59.79c.49,0,.36.75.3,1.06-1.01,5.11-5.03,14.67-7.35,20.05-1.05,2.42-2.63,5.13-4.11,7.53Z"/>
        <path class="cls-1" d="M268.97,131.05c5.69-2.23,12.22-4.93,18.48-4.93.61,0,5.21.47,5.33.62.76.95-2.16,1.08-3.17,1.38-2.25.67-5.13,2.17-6.63,3.54-2.18,1.99-2.23,3.39,1.2,3.59.44.02,1.49-.28,1.55-.2.1.11-.78,1.33.15,1.51,2.38-.24,3.94-.59,4.19-2.43.15,0,.3,0,.44,0,2.7-.02,4.51-.12,7.48-.69,1.38-.26,2.32-.47,3.42-1.16l.21,1.23c6.39-3.98,13.99-5.08,20.7-3.69-3.58,2.55-8.77,5.64-13.55,6.65-.73.15-1.38-.2-2.05.09s-2,1.46-3.17,2.04c-7.57,3.74-15.37,5.17-23.66,5.72l-5.32-.64c4.95-1.05,10.27-3.47,13.48-6.47-1.19-.08-2.4.5-3.59.59-1.67.12-3.72-.19-5.24.09-.88.16-4.13,1.84-5.91,2.35-10.41,2.99-23.31.73-28.63-4.25-1.02-.96-1.29-2.3-2.62-3.09-.65,2.03.3,4.13,1.48,5.69.77,1.02,3.62,2.15,1.8,3.55-5.9-2.99-10.23-6.04-9.38-12.01,1.22-.92,1.46-2.39,2.13-3.39.83.67,1.71-.27,2.55-.32.37-.02-.03.48.29.63,1.28.61,4.59.17,6.43.33,1.31.11,2.72.51,4.09.69.8.1,1.23.58,1.41-.41,0,.15,1.07,2.35,1.26,2.62,1.79,2.48,4.73,3.2,9.26,2.62,3.84-.49,3.03-.85,5.57-1.85ZM276.17,131.14c-.4.19-.69.7-1.38.97-1.85.74-5.81,1.24-6.39,2.78-.85,2.25,6.73.65,8.84-.09,6.2-2.19,1.92-5.08-1.07-3.67Z"/>
        <path class="cls-11" d="M340.82,101.17c-1.18,2.97-2.06,5.96-3.27,8.93s-2.55,6.06-4.16,8.93c-.02.03-.36.11-.67.62-.12.19-.11.42-.23.62-.32.51-.2.58-.23.62-.29.47-.53.47-.67.62-.93.94-.28.45-.34.92-.01.1-.1.21-.11.31-.07.51.25,1.33-.29,1.79-.24.2-4.68,1.96-5.4,1.6-.13-.02-.31.02-.44,0-.14-.46-1.08-.3-1.67-.31-5.85-.08-11.41,0-17.04,2.96-1.94,1.02-3.25,2.5-4.89,3.51-1.1.68-2.05.89-3.42,1.16-2.97.57-4.77.68-7.48.69,3.09-1.14,6.03-1.99,9.01-3.4,2.35-1.11,4.92-3.02,7.03-3.99,3.03-1.4,9.59-3.2,12.91-3.7,1.61-.24,3.81-.24,5.43-.32,3.74-5.98,5.14-12.1,7.57-18.16h-23.56c-.25,0,.88-2.94.8-3.39,8.59,1,22.02-.75,31.12,0Z"/>
        <path class="cls-12" d="M277.31,52.51l-.11.31-.56.31c-2.82,1.97-7.04,3.27-8.37,5.85-12,5.45-24.1,14.39-29.81,23.1-.47.72-1.13,1.4-1.23,2.16-2.49-.66-3.8-4.62-4.3-6.47,4.92-5.22,10.95-9.93,17.31-14.47,2.71-1.94,3.86-2.52,6.63-4.78,2.78-2.28,10.19-4.87,14.1-5.69,1.09-.23,1.92-.55,3.12-.62,1.56-.09,2.21.26,3.22.31Z"/>
        <path class="cls-1" d="M218.78,103.02c-2.73,3.21-5.12,7.94-4.29,11.09.26.96,1.17,1.76,1.43,2.77.46,1.77.42,4.11.97,5.85-.92.07-1.39-.2-2.02-.48-11.68-5.15-10.15-19.75,5.29-26.62-.97,2.24-2.24,5.4-1.38,7.39Z"/>
        <path class="cls-1" d="M341.89,128.58c-.26.03-.61,0-.89,0-5.09-.11-10.95-1.59-15.54-2.46.72.36,5.15-1.39,5.4-1.6.54-.46.22-1.28.29-1.79,2.48.06,4.68.44,7.27.33.84-.03,1.39-.31,1.62-.33,3.01-.27,4.13-.44,7.12-1.23,3.85-1.02,5.43-1.78,8.69-3.69.7-.41,4.25-3.53,4.34-1.65.09,1.78-5.75,6.69-8.04,8.12-1.91,1.19-8.06,4.04-10.25,4.31Z"/>
        <path class="cls-1" d="M367.08,38.04c-5.87,4.77-13.26,2.95-20.17,5.42-3.55,1.26-5.87,3.04-7.78,5.36-1.87-.59-5.29-1.46-7.32-1.85,3.33-4.3,10.95-7.51,17.42-7.97s14.66,1.16,18.33-4.66c2.35.17.16,2.73-.47,3.7Z"/>
        <path class="cls-1" d="M280.91,83.93c-1.07,5.23-5.72,10.09-12.19,13.86-.61-.42-2.62.05-3.54.22-4.35.83-9,2.12-12.6,4.39l-3.34,2.47c.69-2.23,3.17-4.11,5.43-5.89l8.74-4.89c.13-.04.31.04.44,0l.56-.31c5.17-1.75,10.21-4.66,12.68-8.25.69-1.01,1.85-3.91,2.39-4.39.65-.56.76-.1.98.2.58.81.37,1.71.45,2.57Z"/>
        <path class="cls-3" d="M262.79,122.43c-1.07.04-1.32.39-1.84.97-3.4,3.81-1.66,7.6,2.45,9.5-4.53.58-7.47-.14-9.26-2.62-.19-.27-1.26-2.47-1.26-2.62,0-.09.1-.2.11-.31.13-.84.82-1.89,1.02-2.77,2.27-3.38,7.25-6.28,11.94-8.32.2-.09,1-.1,1.61-.35,4.17-1.71,6.79-4.1,8.66-7.04.83-1.31,1.25-2.9,2.36-4-.45,4.6-3.15,8.82-8.44,12.6-1.94,1.39-6.64,3.57-7.33,4.95Z"/>
        <path class="cls-3" d="M258.3,111.65c-1.7,0-4.39.43-6.12.92-.47-1.19-.64-3.29-.08-4.62,2.09-4.97,11.32-7.08,16.62-10.16,6.48-3.77,11.13-8.63,12.19-13.86.42,4.32-1.21,8.46-5.85,12.53-6.03,5.29-17.6,7.67-16.76,15.19Z"/>
        <path class="cls-1" d="M278.56,104.87c-1.11,1.1-1.53,2.7-2.36,4-2.34.08-2.99,1.38-4.4,2.31-1.55,1.02-2.85,1.56-4.19,2.92-3.11,1.09-6.94,2.5-9.83,3.88-1.74.83-3.03,1.9-4.76,2.6-.21-2.14,3.21-3.75,4.79-5.48.33-.36.29-.73.47-.99.2-.28.65-.56.78-.92.04-.1.12-.23.11-.31,9.33-1.84,15.95-7.4,17.42-13.55,1.07-.13.99.46,1.23.91.55,1.03.85,3.43.74,4.63Z"/>
        <path class="cls-11" d="M263.4,94.09l-8.74,4.89c-2.26,1.78-4.74,3.66-5.43,5.89l3.34-2.47c3.6-2.27,8.26-3.56,12.6-4.39.92-.17,2.93-.64,3.54-.22-5.29,3.08-14.53,5.19-16.62,10.16-2.6.63-5.05.98-7.46,2.16.27-1.74.13-3.08.92-4.93,1.73.1,1.08.05,1.62-.75,1.45-2.1,3-3.73,4.75-5.72,2.54-1.52,4.52-2.7,7.58-3.7,1.01-.33,2.9-.59,3.9-.92Z"/>
        <path class="cls-1" d="M273.34,47.59c.79.84,2.48,2.45,4.11.92-.28.21-.48.77-1.12,1.21-1.56,1.09-3.86,1.91-5.35,3.1-3.91.81-11.32,3.41-14.1,5.69-2.77,2.27-3.92,2.85-6.63,4.78,0-4.02,4.79-8.43,10.26-10.91,3.56-1.61,10.08-2.97,12.83-4.8Z"/>
        <path class="cls-3" d="M315.03,45.43c-2.5,2.18-2.48,2.72-4.03,4.93-.41.59-1.94,1.48-1.79,2.46-2.4-.07-3.5.61-3.05-1.38,2.08-9.24,11.55-10.41,20.95-14.81,1.72-.8,3.74-2.44,5.1-2.9-1.57,4.65-9.84,6.6-14.68,9.69-1.25.8-1.55,1.18-2.51,2.01Z"/>
        <path class="cls-1" d="M363.22,110.41l-.77-2.77-3.56,2.46c-.07-2.14.75-4.13,3.7-5.85l8.36-4.61c1.6,2.99-1.18,8.55-6.36,10.61-.52.21-1.07.09-1.36.17Z"/>
        <path class="cls-3" d="M344.23,50.67c-1.21-.53-3.74-1.42-5.1-1.85,1.91-2.33,4.24-4.1,7.78-5.36,6.91-2.46,14.3-.64,20.17-5.42-4.47,6.81-13.75,4.45-19.84,8.62-1.82,1.24-2.64,2.46-3.02,4.01Z"/>
        <path class="cls-3" d="M266.09,129.2c-1.99-1.55-2.89-2.02-3.31-4.31,3.85,0,7.17.31,11.17-.98s5.77-2.98,7.65-5.49c.05,5.38-7.87,9.92-15.51,10.78Z"/>
        <path class="cls-11" d="M281.6,118.42c-1.88,2.51-3.72,4.22-7.65,5.49s-7.32.98-11.17.98c-.14-.76-.35-1.29-.1-2.16,4.42.3,11.77-.37,14.76-3.83.77-.89.76-1.39,1.21-2.18,1.5-2.66,2.93.5,2.94,1.7Z"/>
        <path class="cls-11" d="M281.95,37.42c.69,3.29.05,6.43-2.72,9.86-.61.35-1.25.83-1.79,1.23-1.63,1.52-3.32-.08-4.11-.92,3.34-2.22,5.17-5.7,5.71-8.44.21-1.07-.98-4.26,1.59-3.34,1.38.49.93,1.18,1.31,1.61Z"/>
        <path class="cls-1" d="M307.73,77.46c-1.37,1.66-1.79,3.22-4.13,4.63-2.8,1.69-5.51.78-7.92,2.76-1.19-1.1-1.08-1.76.22-3.31,1.83-2.17,6.52-2.34,9.39-5.31.39-.4,1.31-2.72,1.99-1.35.23.46.46,2.03.44,2.58Z"/>
        <path class="cls-12" d="M262.79,122.43c-.05.1-.08.21-.11.31-.25.87-.04,1.39.1,2.16.41,2.3,1.32,2.76,3.31,4.31.87.68,1.56,1.47,2.88,1.85-2.53,1-1.72,1.36-5.57,1.85-4.11-1.9-5.84-5.69-2.45-9.5.52-.58.77-.94,1.84-.97Z"/>
        <path class="cls-12" d="M223.36,100.25c-.48,1.63-1.35,3.3-1.81,4.93-.03.1-.09.21-.11.31-.94-.16-2.37-1.81-2.65-2.46-.87-1.99.41-5.15,1.38-7.39.53-1.23,1.91-2.88,2.03-4.31,1.51,3.59,2.48,4.47,1.17,8.93Z"/>
        <path class="cls-11" d="M365.16,82.08c-2.46-1.16-10.04.55-10.58,3.39-1.22-.28-.13-2.17.67-2.89,2.63-2.36,11.11-2.59,11.39-6.97,2.13.29.56,3.8-.12,5.06-.39.73-.97.96-1.37,1.41Z"/>
        <path class="cls-9" d="M283.01,46.66c-.46,1.03-.55,1.41-1.35,2.46-.7.92-3.08,3.46-4.35,3.39-1.01-.05-1.65-.41-3.22-.31-1.19.07-2.03.39-3.12.62,1.49-1.19,3.78-2.01,5.35-3.1.64-.45.84-1,1.12-1.21.54-.4,1.18-.88,1.79-1.23,1.99-1.16,1.56.16,3.78-.62Z"/>
        <path class="cls-3" d="M295.68,84.85c2.4-1.98,5.12-1.08,7.92-2.76,2.34-1.41,2.76-2.97,4.13-4.63-.1,2.71-1.44,6.69-6.36,7.93-2.63.66-4.32.73-5.69-.53Z"/>
        <path class="cls-11" d="M371.82,44.51c-1.35,1.68-2.47,3.48-5.29,4.37-2.48.79-6.43.51-7.53,2.71-2.09-.37.47-3.01,2.84-3.76,4.07-1.28,7.59-.85,9.66-4.86,1.11.21.35,1.04.32,1.54Z"/>
        <path class="cls-1" d="M365.16,82.08c-.08.09-.03.23-.11.31l-.56.31c-1.14.93-1.76,1.63-3.61,2.22-1.5.47-5.06.84-6.29.55.54-2.84,8.11-4.54,10.58-3.39Z"/>
        <path class="cls-3" d="M371.82,44.51c-.07,1.1.5,1.03.49,1.12-.01.18-2.17,3.09-2.49,3.42-2.02,2.12-8.13,3.02-10.82,2.54,1.1-2.2,5.05-1.92,7.53-2.71,2.83-.9,3.94-2.69,5.29-4.37Z"/>
        <path class="cls-3" d="M284.03,43.89c-.88.39-1.38,1.77-.79,2.16-.08.2-.14.41-.23.62-2.22.78-1.8-.55-3.78.62,2.78-3.43,3.41-6.57,2.72-9.86,1.81,2.11,2.68,3.54,2.07,6.47Z"/>
        <path class="cls-11" d="M282.97,131.66c-.77,1.46,3.59.05,3.89.31l-2.34,2.77c1.79.18,3.77-.59,5.56-.61-.25,1.84-1.81,2.19-4.19,2.43-.93-.18-.05-1.4-.15-1.51-.06-.07-1.11.23-1.55.2-3.43-.19-3.38-1.6-1.2-3.59Z"/>
        <path class="cls-11" d="M369.38,63.29c-1.49-.26-.89-2.23.02-3.08.8-.76,4.06-1.2,5.41-1.99,1.21-.71,2.02-2.23,2.18-2.32,1.28-.74.53.82.55.92-.93,1.55-1.34,2.81-3.65,3.83-1.77.78-4.28.76-4.5,2.64Z"/>
        <path class="cls-3" d="M369.38,63.29c.21-1.87,2.73-1.86,4.5-2.64,2.31-1.02,2.72-2.28,3.65-3.83.14.82.46,1.31.06,2.3-1,2.46-4.61,4.79-8.21,4.17Z"/>
        <path class="cls-4" d="M312.89,87.62c.06-2.15,3.51-2.19,4.76-3.21.75-.61.66-1.27,1.49-1.72.71,2.02-2.68,5.56-6.25,4.93Z"/>
        <path class="cls-4" d="M371.99,92.55c-.76,1.61-5.96,5.04-6.91,3.08.91-1.69,4.66-2.6,6.91-3.08Z"/>
        <path class="cls-11" d="M319.15,82.7c-.83.44-.74,1.11-1.49,1.72-1.26,1.02-4.7,1.06-4.76,3.21-1.3-.23-.93-1.8.11-2.59,1.36-1.04,4.69-.9,5.04-2.96.81-.1.96.2,1.1.62Z"/>
        <path class="cls-11" d="M365.08,95.63c-1.13-2.34,2.84-2.51,4.71-3.67.93-.58,1.64-1.8,1.77-1.87,1.41-.68.6,2.09.42,2.46-2.25.48-6,1.39-6.91,3.08Z"/>
        <path class="cls-3" d="M363.22,110.41c-.11.03-.38.5-1.32.61-1,.12-2.08-.06-3.11.02-.5-.1.11-.67.1-.94l3.56-2.46.77,2.77Z"/>
        <path class="cls-9" d="M283.24,46.05c-.59-.39-.09-1.77.79-2.16-.14.66-.54,1.47-.79,2.16Z"/>
        <path class="cls-11" d="M364.49,82.7l.56-.31c-.15.14-.45.22-.56.31Z"/>
        <path class="cls-11" d="M263.85,94.09c.16-.05.36-.24.56-.31l-.56.31Z"/>
        <path class="cls-8" d="M314.44,50.67c.29,0,.6-.01.89,0,11.04.49,19.31,2.35,26.86,6.78-2.53,2.53-5.83-.2-8.23-.98-8.07-2.6-15.12-3.36-24.75-3.64-.14-.98,1.38-1.87,1.79-2.46,1.13.17,2.23.27,3.44.31Z"/>
        <path class="cls-1" d="M348.44,70.68c.63-.87-1.01-3.53-.81-3.83.35-.53,2.93-.82,3.62-1.41.55.73,3.11,2.39,2.24,3.49-.4.5-4.02,1.39-5.05,1.74Z"/>
        <path class="cls-10" d="M251.93,98.71c-1.75,1.99-3.31,3.62-4.75,5.72-.54.79.11.85-1.62.75.81-1.91,3.09-4.78,5.39-6.26.45-.29.94-.18.98-.21Z"/>
        <path class="cls-11" d="M244.52,110.41c1.24-.14.85.19.55.92-.83.16-.69-.28-.77-.31.07-.21.16-.41.23-.62Z"/>
        <path class="cls-3" d="M315.33,50.67c-.29-.01-.6,0-.89,0l.61-.21.28.21Z"/>
        <path class="cls-3" d="M237.36,99.63c4.11,6.51-6.31,15.02-.12,20.94-2.77,2.52-3.84,5.15-5.1,7.86-.16.34-.13,1.03-.94.76-2.63-.85-5.59-8.95-5.44-11.36-4.2.64-6.51-.09-9.84-.95-.26-1.02-1.18-1.81-1.43-2.77-.83-3.15,1.56-7.87,4.29-11.09.28.65,1.72,2.3,2.65,2.46-.51,1.92-.94,4.29-.52,6.06.1.41,1.13,2.73,1.34,2.83,1.07.5,4.11-1.37,5.03-2.01,4.99-3.44,7.33-7.94,8.52-12.11.08-.29-.23-.53-.22-.62.06-.39.36-.83.45-1.23.38.26,1.13.93,1.33,1.23Z"/>
        <path class="cls-11" d="M237.36,99.63c-.19-.3-.94-.97-1.33-1.23-.7.1-1.1,1.1-.45,1.23-.01.09.3.33.22.62-1.22.35-5.26.54-5.66-.07-.18-.28-.05-4.66-.24-5.64-.76-3.9-3.87-7.23-2.88-11.55,3.92,4.91,10.1,9,10.97,15.18.06.45.37,1.13-.63,1.45Z"/>
        <path class="cls-3" d="M221.55,105.18c.46-1.63,1.33-3.3,1.81-4.93.28,1.25-.57,3.61-1.81,4.93Z"/>
        <path class="cls-3" d="M323.34,125.81c.12.52,1.19.23,1.67.31.13.02.31-.02.44,0,4.59.87,10.45,2.35,15.54,2.46-2.93,1.25-9.99.85-11.87,1.57-.91.35-7.1,5.06-8.95,6.13-23.49,13.65-55.75,15.51-74.83,5.85,1.82-1.4-1.03-2.53-1.8-3.55-1.18-1.56-2.12-3.66-1.48-5.69,1.33.79,1.6,2.14,2.62,3.09,5.31,4.99,18.22,7.24,28.63,4.25,1.78-.51,5.03-2.19,5.91-2.35,1.52-.28,3.57.03,5.24-.09,1.19-.09,2.4-.67,3.59-.59-3.21,3-8.53,5.42-13.48,6.47l5.32.64c8.3-.55,16.09-1.98,23.66-5.72,1.17-.58,2.48-1.73,3.17-2.04s1.32.06,2.05-.09c4.78-1,9.97-4.09,13.55-6.65-6.71-1.39-14.31-.29-20.7,3.69l-.21-1.23c1.64-1.01,2.95-2.49,4.89-3.51,5.63-2.96,11.2-3.04,17.04-2.96Z"/>
        <path class="cls-10" d="M259.07,113.19c-.13.37-.59.65-.78.92-8.63,2.26-16.3,6.84-20.19,12.63-.67.99-.91,2.47-2.13,3.39.01-.09-.29-.33-.19-.75,1.88-7.87,12-14.1,23.29-16.19Z"/>
        <path class="cls-8" d="M311.39,39.58l-.67.62c-7.06,2.14-10.91,7.62-16.18,11.19-5.88,3.98-15.18,6.02-22.16,9.15-14.03,6.3-24.94,15.38-30.95,25.55-.96.42-2.11-3.79-2.97-4,5.71-8.7,17.81-17.65,29.81-23.1,7.52-3.42,17.55-5.71,24-9.71,5.38-3.34,8.83-7.88,16.23-9.08.21-.03.43-.18.56-.31.73-.13,1.52-.15,2.34-.31Z"/>
        <path class="cls-10" d="M311.39,39.58c.71-.14,1.67-.52,2.44-.62.63.68-2.39,1.01-3.11,1.23l.67-.62Z"/>
        <path class="cls-9" d="M276.64,53.13l.56-.31c-.15.12-.41.2-.56.31Z"/>
        <path class="cls-10" d="M308.5,40.2c.13-.13.35-.27.56-.31-.13.13-.35.27-.56.31Z"/>
        <path class="cls-1" d="M309.7,101.17c.08.45-1.04,3.39-.8,3.39h23.56c-2.43,6.05-3.83,12.18-7.57,18.16-1.62.08-3.82.08-5.43.32l5.86-14.78h-22.89c-.49,0-.36-.75-.3-1.06.45-2.26,2.12-5.94,3.47-8.18,1.1.51,2.79,2,4.1,2.16Z"/>
        <path class="cls-8" d="M305.6,99.02c.07-.12-.6-.56,0-.62h41.3c.52-.03.03.41.03.62l-6.12,2.16c-9.1-.75-22.52,1-31.12,0-1.31-.15-3-1.65-4.1-2.16Z"/>
        <path class="cls-4" d="M343.78,108.87c-1.85,4.75-3.82,9.18-6.86,13.86h3.11c-.23.02-.78.3-1.62.33-2.59.11-4.79-.27-7.27-.33.01-.1.1-.21.11-.31l.34-.92c.14-.14.38-.15.67-.62l.23-.62c.12-.19.11-.42.23-.62l.67-.62c1.61-2.87,2.98-6.03,4.16-8.93,1.5-.34,1.07.7,1.89.8.4.05,2.64-.13,2.76-.2.55-.31-.06-2.1,1.59-1.83Z"/>
        <path class="cls-1" d="M343.78,108.87c-1.65-.27-1.04,1.53-1.59,1.83-.12.07-2.36.24-2.76.2-.82-.1-.39-1.13-1.89-.8,1.21-2.97,2.1-5.96,3.27-8.93l6.12-2.16c.03,2.54-2.09,7.08-3.17,9.86Z"/>
        <path class="cls-11" d="M258.28,114.11c-.18.26-.14.63-.47.99-1.58,1.73-5,3.34-4.79,5.48,1.73-.7,3.02-1.77,4.76-2.6,2.89-1.37,6.72-2.79,9.83-3.88-.6.61-1.12,1.5-1.68,2.16-4.69,2.04-9.67,4.93-11.94,8.32-.52.77-1.87,1.97-1.02,2.77-.02.11-.11.22-.11.31-.19,1-.61.52-1.41.41-1.37-.18-2.78-.58-4.09-.69-1.84-.16-5.14.28-6.43-.33-.32-.15.08-.65-.29-.63-.85.04-1.72.99-2.55.32,3.89-5.79,11.56-10.37,20.19-12.63Z"/>
        <path class="cls-4" d="M276.17,131.14c2.98-1.41,7.27,1.47,1.07,3.67-2.1.74-9.69,2.34-8.84.09.58-1.54,4.54-2.04,6.39-2.78.68-.27.98-.79,1.38-.97Z"/>
        <path class="cls-1" d="M325.01,126.12c-.47-.08-1.54.21-1.67-.31.58,0,1.53-.15,1.67.31Z"/>
        <path class="cls-1" d="M331.25,122.43c.05-.47-.59.02.34-.92l-.34.92Z"/>
        <path class="cls-1" d="M332.26,120.89s-.1-.1.23-.62l-.23.62Z"/>
        <path class="cls-1" d="M332.71,119.65c.31-.51.65-.58.67-.62l-.67.62Z"/>
        <path class="cls-4" d="M276.21,108.87c-1.87,2.95-4.49,5.34-8.66,7.04-.6.25-1.41.26-1.61.35.56-.66,1.08-1.54,1.68-2.16,1.34-1.37,2.63-1.9,4.19-2.92,1.41-.93,2.06-2.23,4.4-2.31Z"/>
        <path class="cls-1" d="M252.98,127.35c-.85-.8.5-2,1.02-2.77-.2.88-.88,1.93-1.02,2.77Z"/>
        <path class="cls-1" d="M235.59,99.63c-.65-.13-.25-1.13.45-1.23-.09.4-.39.84-.45,1.23Z"/>
      </g>
    </g>
  </g>
</svg>